<?xml version="1.0" standalone="no"?>
<!DOCTYPE svg PUBLIC "-//W3C//DTD SVG 20010904//EN"
 "http://www.w3.org/TR/2001/REC-SVG-20010904/DTD/svg10.dtd">
<svg version="1.0" xmlns="http://www.w3.org/2000/svg"
 width="225.000000pt" height="225.000000pt" viewBox="0 0 225.000000 225.000000"
 preserveAspectRatio="xMidYMid meet">

<g transform="translate(0.000000,225.000000) scale(0.100000,-0.100000)"
fill="#000000" stroke="none">
<path d="M364 2238 c-12 -5 -27 -21 -33 -34 -16 -35 -16 -2123 0 -2158 14 -31
57 -49 93 -40 56 14 56 11 56 466 0 379 2 418 16 418 9 0 56 25 104 55 113 72
178 96 260 98 71 1 96 -9 211 -83 89 -57 145 -73 243 -68 71 4 97 12 211 60
149 64 214 84 303 94 109 12 102 -27 102 555 0 349 -3 505 -11 523 -35 77
-212 50 -479 -70 -71 -33 -96 -39 -150 -39 -62 0 -70 3 -155 57 -111 69 -153
87 -225 95 -111 11 -248 -29 -378 -111 -23 -14 -44 -26 -47 -26 -3 0 -5 38 -5
85 0 78 -2 88 -25 110 -25 26 -56 31 -91 13z m607 -256 c30 -16 81 -45 114
-66 148 -91 232 -88 482 18 70 30 145 58 166 61 l37 7 0 -400 0 -399 -72 -18
c-39 -9 -128 -41 -197 -70 -217 -91 -235 -91 -373 -3 -111 71 -161 88 -261 88
-116 0 -230 -39 -355 -121 l-32 -21 0 396 c0 290 3 396 11 396 7 0 53 26 103
58 165 104 278 126 377 74z"/>
</g>
</svg>
